<?xml version="1.0" encoding="UTF-8"?>
<svg version="1.1" xmlns="http://www.w3.org/2000/svg" width="512" height="512">
<path d="M0 0 C4.98354923 5.04713519 9.43081085 10.42878012 13.8125 16 C14.60398437 16.97453125 15.39546875 17.9490625 16.2109375 18.953125 C54.68109444 67.25319585 71.08653633 130.79497302 65.04321289 191.84545898 C59.09535929 242.50222999 38.31467574 287.13608346 5.09082031 325.52197266 C3.9270038 326.86760772 2.77162454 328.22052834 1.6171875 329.57421875 C-2.04157366 333.79972919 -5.82339887 337.61331018 -10.09765625 341.21484375 C-11.5110245 342.42215083 -12.89378467 343.66607871 -14.24609375 344.94140625 C-27.95258174 357.84023291 -43.66523086 368.10227745 -60.1875 377 C-60.86345215 377.36818848 -61.5394043 377.73637695 -62.23583984 378.11572266 C-116.02230888 407.15586796 -181.69644915 412.90983289 -240.20019531 396.13623047 C-287.39152435 381.91552816 -330.83795179 354.21627766 -361.1875 315 C-361.61144043 314.4524707 -362.03538086 313.90494141 -362.47216797 313.34082031 C-373.78604392 298.61666024 -383.42820995 282.87387999 -391.1875 266 C-391.5184668 265.28295898 -391.84943359 264.56591797 -392.19042969 263.82714844 C-417.76163685 207.6683729 -419.96819271 141.9194953 -399.06933594 83.89550781 C-391.89191407 65.04504788 -383.0950977 46.35215013 -371.1875 30 C-370.46949219 29.01 -369.75148438 28.02 -369.01171875 27 C-358.12270582 12.25563707 -346.37644593 -2.28890308 -332.1875 -14 C-331.259375 -14.81597656 -330.33125 -15.63195312 -329.375 -16.47265625 C-292.43755295 -48.83634418 -244.91477026 -68.3342077 -196.1875 -73 C-195.45015625 -73.07444336 -194.7128125 -73.14888672 -193.953125 -73.22558594 C-120.29586954 -80.24856331 -51.94901632 -50.74276981 0 0 Z M-310.9296875 11.9296875 C-312.95225254 13.78428866 -315.02233984 15.55035161 -317.125 17.3125 C-331.29104223 29.74682164 -342.96434708 45.64757647 -352.1875 62 C-352.60354492 62.72719238 -353.01958984 63.45438477 -353.44824219 64.20361328 C-380.41136047 111.79186704 -386.73234833 167.2306104 -373.1875 220 C-363.66397208 254.42239008 -345.70931409 285.02680101 -320.70068359 310.45605469 C-319.38330656 311.80021286 -318.08984001 313.16772339 -316.80078125 314.5390625 C-286.66751198 346.06481186 -242.01439781 365.61079213 -199.1875 371 C-198.45998535 371.0942627 -197.7324707 371.18852539 -196.98291016 371.28564453 C-189.31796272 372.17146335 -181.64622556 372.24331911 -173.9375 372.25 C-173.23329926 372.25067474 -172.52909851 372.25134949 -171.80355835 372.25204468 C-159.40183356 372.23328155 -147.37515962 371.37899369 -135.1875 369 C-134.32688965 368.83371094 -133.4662793 368.66742188 -132.57958984 368.49609375 C-112.76544974 364.52370256 -93.91947698 357.67112124 -76.1875 348 C-75.5903418 347.68063477 -74.99318359 347.36126953 -74.37792969 347.03222656 C-53.42468387 335.78484393 -33.37238416 320.36390223 -18.1875 302 C-17.45402344 301.16597656 -16.72054688 300.33195312 -15.96484375 299.47265625 C-8.5216313 290.87344567 -2.24369364 281.61592491 3.8125 272 C4.22387207 271.3507959 4.63524414 270.7015918 5.05908203 270.03271484 C15.90508229 252.65089571 23.09957001 232.87583764 27.8125 213 C28.10640625 211.80632812 28.4003125 210.61265625 28.703125 209.3828125 C40.43121978 158.67604978 30.44581282 103.42548466 3.8125 59 C-2.14702713 49.46347681 -8.82516457 40.50111393 -16.1875 32 C-16.90421875 31.17242187 -17.6209375 30.34484375 -18.359375 29.4921875 C-53.08151545 -9.78569478 -99.2121597 -33.53367513 -151.1875 -40 C-152.72470703 -40.19722656 -152.72470703 -40.19722656 -154.29296875 -40.3984375 C-210.72495325 -46.28837664 -269.37253466 -26.42048249 -310.9296875 11.9296875 Z " fill="#000000" transform="translate(428.1875,89)"/>
<path d="M0 0 C4.04309714 2.32643774 6.94562283 5.15751149 10.1980896 8.46708679 C10.86220856 9.13076767 11.52632751 9.79444855 12.21057129 10.47824097 C14.39280113 12.66255231 16.56422613 14.85727931 18.73568726 17.05229187 C20.25103233 18.57323514 21.76704335 20.0935152 23.28369141 21.61315918 C27.2654537 25.6063525 31.2381227 29.60847411 35.20895386 33.61253357 C39.26578817 37.70010608 43.33117334 41.7791545 47.39584351 45.8589325 C55.36386243 53.85908486 63.32229915 61.86869719 71.27474976 69.88432312 C72.40179068 68.92407537 73.52801866 67.96287341 74.65390015 67.00126648 C75.28115494 66.46609909 75.90840973 65.9309317 76.55467224 65.37954712 C78.36104854 63.80930556 80.05480343 62.17315033 81.71224976 60.44682312 C84.8106025 57.29276965 88.0805095 54.40028767 91.42318726 51.50932312 C94.5985755 48.72248449 97.52250859 45.87001844 100.08724976 42.50932312 C101.95516014 40.26783066 103.72561531 38.5717441 105.93392944 36.6960907 C110.12308509 33.06643099 114.03211372 29.22303078 117.91537476 25.27104187 C119.32930699 23.84448045 120.74337332 22.41805194 122.15756226 20.991745 C124.3538195 18.77056393 126.54842255 16.54779299 128.74057007 14.32255554 C130.87780258 12.15517771 133.02116724 9.99401629 135.16537476 7.83354187 C135.81959412 7.16586288 136.47381348 6.4981839 137.14785767 5.81027222 C137.76239807 5.19235306 138.37693848 4.5744339 139.01010132 3.93778992 C139.5455658 3.39486801 140.08103027 2.85194611 140.63272095 2.29257202 C144.98263264 -1.43803144 149.0355387 -1.54637245 154.58334351 -1.42817688 C159.76525165 -0.82650395 162.30392302 1.75606502 165.58724976 5.57182312 C167.65975904 9.64008208 168.67756048 13.30692855 168.27474976 17.88432312 C166.20102596 23.95084196 163.14503797 27.57116039 158.60018921 32.01298523 C157.92675476 32.68700378 157.25332031 33.36102234 156.55947876 34.0554657 C154.345017 36.26715464 152.1167557 38.46435939 149.88803101 40.66166687 C148.34444942 42.19778328 146.80175222 43.73478885 145.25990295 45.27264404 C141.20971262 49.30760014 137.14765244 53.33039659 133.08297729 57.35075378 C128.93326554 61.4594657 124.79492748 65.57959837 120.65560913 69.69877625 C112.53972863 77.77182479 104.41125877 85.83206938 96.27474976 93.88432312 C100.20581856 98.60220653 104.3059646 103.03894207 108.6914978 107.33525085 C109.30203003 107.93789764 109.91256226 108.54054443 110.54159546 109.16145325 C111.85497032 110.45775373 113.16939439 111.75299189 114.48477745 113.04725456 C117.28716462 115.80725983 120.07998255 118.57686518 122.87344837 121.34589481 C128.06147757 126.48834517 133.25326313 131.62685176 138.46151733 136.74882507 C142.09732986 140.32513663 145.72071583 143.91363497 149.33628273 147.5104084 C150.7108334 148.87325007 152.08989821 150.23155504 153.47360802 151.58509636 C155.40959072 153.47990174 157.32930684 155.38989714 159.2461853 157.30400085 C159.81506973 157.85333786 160.38395416 158.40267487 160.97007751 158.96865845 C165.35652722 163.4004142 167.9507966 168.05578582 168.48959351 174.42338562 C167.68035044 180.50980533 165.96119679 184.65840986 161.08724976 188.69682312 C154.79705509 191.35268309 149.8312225 191.44378864 143.41270447 188.9551754 C139.64044935 187.06573968 136.94763768 184.20984645 134.03256226 181.20976257 C133.35839767 180.53632813 132.68423309 179.86289368 131.98963928 179.16905212 C129.78093752 176.95688793 127.59044298 174.72759136 125.39974976 172.49760437 C123.86528283 170.95380465 122.32970273 169.41111064 120.7930603 167.86947632 C116.76408256 163.82146603 112.75035073 159.75866389 108.73965454 155.69255066 C104.63939621 151.54102006 100.52483434 147.40371918 96.41146851 143.2651825 C88.35186696 135.15205919 80.30830693 127.02323044 72.27474976 118.88432312 C67.51523008 122.84947522 63.0412602 126.99170435 58.70028687 131.40873718 C58.08467392 132.03062927 57.46906097 132.65252136 56.83479309 133.29325867 C55.51063749 134.63116626 54.18756688 135.9701484 52.86549187 137.310112 C50.77068369 139.43176038 48.67135301 141.54883232 46.57054138 143.66453552 C40.60199623 149.6756465 34.63626185 155.6894602 28.68661499 161.71928406 C25.03674419 165.41767843 21.37717899 169.10623385 17.711092 172.78855133 C16.31959429 174.18993741 14.9317583 175.59496942 13.54771233 177.00371552 C11.6142242 178.97096284 9.6686273 180.92543289 7.71981812 182.87748718 C6.87100067 183.75023285 6.87100067 183.75023285 6.0050354 184.64060974 C2.10212073 188.51404372 -1.38659929 190.71739057 -7.06900024 191.00151062 C-13.65686131 190.2615697 -17.5186234 188.26515735 -22.10025024 183.32182312 C-24.35076527 178.56111826 -24.71427551 174.06216125 -23.72525024 168.88432312 C-20.56157076 163.40438724 -16.33908737 159.23936348 -11.85415649 154.81791687 C-11.09481308 154.06140335 -10.33546967 153.30488983 -9.55311584 152.52545166 C-7.13600469 150.11948263 -4.71203014 147.72056653 -2.28775024 145.32182312 C-0.6616375 143.7057511 0.96401834 142.0892192 2.58920288 140.47221375 C5.57588391 137.50182457 8.56514493 134.53408801 11.55770874 131.56962585 C12.19973236 130.93273834 12.84175598 130.29585083 13.50323486 129.6396637 C14.60773501 128.54524788 15.71398216 127.4525889 16.82287598 126.36262512 C18.70647111 124.50284865 20.39796902 122.71546708 21.96224976 120.57182312 C22.39537476 120.01494812 22.82849976 119.45807312 23.27474976 118.88432312 C23.93474976 118.88432312 24.59474976 118.88432312 25.27474976 118.88432312 C25.27474976 118.22432312 25.27474976 117.56432312 25.27474976 116.88432312 C25.93474976 116.88432312 26.59474976 116.88432312 27.27474976 116.88432312 C27.27474976 116.22432312 27.27474976 115.56432312 27.27474976 114.88432312 C27.93474976 114.88432312 28.59474976 114.88432312 29.27474976 114.88432312 C29.27474976 114.22432312 29.27474976 113.56432312 29.27474976 112.88432312 C30.90348984 111.15742921 32.55935691 109.52147188 34.27474976 107.88432312 C35.38808952 106.77631512 36.49865207 105.66551127 37.60678101 104.55229187 C40.82943726 101.32963562 44.05209351 98.10697937 47.27474976 94.88432312 C43.3336712 90.15806928 39.22457018 85.70371069 34.84213257 81.38578796 C34.22999405 80.7783223 33.61785553 80.17085663 32.98716736 79.54498291 C31.67056695 78.23880804 30.35286531 76.9337424 29.0341568 75.62969589 C26.9464789 73.56419833 24.86292699 71.49462139 22.7805481 69.42378235 C16.86407263 63.54076524 10.94338497 57.66203853 5.01254272 51.79350281 C1.37470778 48.19330644 -2.25578175 44.58584195 -5.88166046 40.97360611 C-7.26159967 39.6017151 -8.64430973 38.2326053 -10.02983856 36.86635971 C-11.96356608 34.95910183 -13.88782295 33.04274624 -15.81021118 31.12406921 C-16.38269089 30.56394638 -16.95517059 30.00382355 -17.54499817 29.42672729 C-21.98133186 24.9677212 -23.99987872 21.29258028 -24.10025024 15.00932312 C-23.96793343 9.77891731 -22.95189536 7.02104763 -19.72525024 2.88432312 C-13.76981557 -1.76091592 -7.12362148 -2.91630459 0 0 Z " fill="#000000" transform="translate(182.72525024414063,160.1156768798828)"/>
</svg>
