<?xml version="1.0" encoding="UTF-8"?>
<svg version="1.1" xmlns="http://www.w3.org/2000/svg" width="512" height="512">
<path d="M0 0 C7.94705817 7.79274636 14.58197776 18.23728106 14.93666077 29.621521 C14.93955471 31.20959367 14.9369129 32.79768222 14.92993164 34.38574219 C14.93007767 35.25439407 14.93022369 36.12304596 14.93037415 37.01802063 C14.92967816 39.88573718 14.9219004 42.75338856 14.9140625 45.62109375 C14.91219721 47.61077845 14.91077383 49.6004636 14.90977478 51.59014893 C14.90595837 56.82457754 14.89613554 62.05897836 14.8850708 67.293396 C14.87483787 72.63569767 14.87027312 77.97800384 14.86523438 83.3203125 C14.85451251 93.80079345 14.83744657 104.28125379 14.81640625 114.76171875 C15.60519165 115.06124954 16.39397705 115.36078033 17.20666504 115.66938782 C25.86960303 119.29533935 30.1591421 130.28115378 34.31640625 138.07421875 C35.01441413 139.36373052 35.71357376 140.65261944 36.41381836 141.94091797 C37.85114784 144.58666094 39.28417759 147.23466238 40.71435547 149.88427734 C43.88499589 155.74665842 47.13349772 161.56545997 50.37890625 167.38671875 C51.61999907 169.61837425 52.86088443 171.85014514 54.1015625 174.08203125 C54.71402832 175.18321289 55.32649414 176.28439453 55.95751953 177.41894531 C58.45291107 181.90632395 60.94638991 186.39476386 63.43969727 190.88330078 C64.6887178 193.13176521 65.93790344 195.38013793 67.18725586 197.62841797 C70.33971088 203.30160317 73.49010755 208.97591496 76.63671875 214.65234375 C82.46933909 225.17003673 88.31901736 235.67633944 94.25390625 246.13671875 C99.81523493 255.94194846 105.27650202 265.80059972 110.70776367 275.67822266 C114.12686562 281.89493126 117.55963325 288.10321811 121.02734375 294.29296875 C121.71244108 295.51788198 122.39750024 296.74281656 123.08251953 297.96777344 C124.36589701 300.26243643 125.65395462 302.55424673 126.94482422 304.84472656 C133.38064163 316.35394396 137.96691147 325.2959384 135.81640625 338.76171875 C133.08939693 347.55980723 128.08895366 354.35738847 119.96371555 358.76723862 C114.08275399 361.63649103 109.29040208 362.32142884 102.79858398 362.21582031 C101.36283775 362.21669647 101.36283775 362.21669647 99.89808655 362.21759033 C96.76500947 362.21482529 93.63290887 362.18380814 90.5 362.15234375 C88.3156842 362.14487575 86.13136166 362.13918546 83.94703674 362.13519287 C78.22094965 362.1199807 72.49527372 362.08073687 66.76934814 362.03637695 C60.9172522 361.99532886 55.06508929 361.97716151 49.21289062 361.95703125 C37.74721601 361.91423841 26.28184543 361.84604067 14.81640625 361.76171875 C14.83735352 362.61290283 14.85830078 363.46408691 14.87988281 364.34106445 C14.94876787 367.55228541 14.99854676 370.76312518 15.03613281 373.97485352 C15.05603295 375.35486375 15.08316365 376.73479212 15.11816406 378.11450195 C15.4897151 393.15685508 11.76990412 405.17555628 1.41015625 416.359375 C-35.45304324 451.4336251 -95.82828744 459.25383233 -144.18359375 462.76171875 C-144.91755371 462.81956543 -145.65151367 462.87741211 -146.40771484 462.93701172 C-212.49131954 468.03899907 -303.59728587 465.71247079 -357.12109375 421.44921875 C-366.92686499 412.94590486 -375.10937316 402.61566672 -376.55572045 389.34815812 C-376.70013661 385.41443903 -376.72257003 381.49096433 -376.69825745 377.55569458 C-376.70359118 376.0375326 -376.71066161 374.51937591 -376.7193045 373.00122917 C-376.73784943 368.85528596 -376.73165518 364.70970193 -376.72115147 360.56374431 C-376.71413615 356.08236167 -376.73017509 351.60105111 -376.7431488 347.11968994 C-376.76475549 338.35034287 -376.76467039 329.58112573 -376.75652326 320.8117608 C-376.75021498 313.68159159 -376.75136789 306.55146017 -376.75779533 299.42129135 C-376.75869699 298.4052022 -376.75959864 297.38911305 -376.76052762 296.34223332 C-376.76237889 294.27782869 -376.76424145 292.21342407 -376.76611518 290.14901946 C-376.78268223 270.80386334 -376.77398395 251.45878022 -376.7571296 232.11362849 C-376.74243563 214.43062983 -376.75705875 196.74780113 -376.78589977 179.06482436 C-376.81532066 160.89040537 -376.82625806 142.71606475 -376.81671757 124.541623 C-376.81569505 122.48434124 -376.81470044 120.42705947 -376.81373405 118.36977768 C-376.81325766 117.35765922 -376.81278127 116.34554077 -376.81229045 115.30275206 C-376.81012977 108.18583477 -376.81991202 101.06899199 -376.83450508 93.95209122 C-376.85205568 85.27202192 -376.85187202 76.59216921 -376.82915343 67.91210832 C-376.81803567 63.48710648 -376.81479248 59.06248582 -376.83345413 54.63750076 C-376.85034665 50.57964662 -376.84379054 46.52250353 -376.81923734 42.46469472 C-376.81438221 41.0038359 -376.8177922 39.54291875 -376.83072478 38.08210911 C-376.96156775 22.1409559 -372.20282839 11.02471649 -361.16015625 -0.31640625 C-325.28750349 -34.18872521 -264.96848897 -41.77308316 -218.18359375 -45.23828125 C-217.43287598 -45.29612793 -216.6821582 -45.35397461 -215.90869141 -45.41357422 C-147.68793272 -50.43221549 -53.61755351 -48.31564482 0 0 Z M-342.18359375 25.76171875 C-344.83873331 28.89634175 -346.03745353 31.23362562 -345.83203125 35.4921875 C-343.14868514 44.88389889 -332.3092812 51.16978173 -324.21142578 55.69140625 C-253.00075045 93.27719973 -145.4799362 91.36494428 -69.9921875 68.65625 C-50.71188694 62.58694203 -29.86970144 55.45396571 -17.18359375 38.76171875 C-15.75055311 35.89563746 -15.8771522 33.94871092 -16.18359375 30.76171875 C-23.73761701 15.65367223 -43.1973512 8.06626403 -58.18359375 2.76171875 C-58.86953613 2.51711914 -59.55547852 2.27251953 -60.26220703 2.02050781 C-133.30760079 -23.56451054 -282.35020404 -35.66117277 -342.18359375 25.76171875 Z M-20.76953125 80.703125 C-65.22730705 105.13807778 -119.02163933 111.93455991 -169.18359375 112.76171875 C-170.04146484 112.78218262 -170.89933594 112.80264648 -171.78320312 112.82373047 C-226.61921543 114.05337418 -292.0440238 109.71417698 -340.2421875 81.4609375 C-342.90606951 79.59497871 -342.90606951 79.59497871 -345.18359375 79.76171875 C-345.32293993 89.27180623 -345.42938896 98.78153946 -345.49446678 108.29242706 C-345.52570962 112.70931697 -345.56805143 117.12550575 -345.63623047 121.54199219 C-345.70167768 125.8084751 -345.73735275 130.07428594 -345.75285721 134.3412323 C-345.76389842 135.96472243 -345.78545997 137.58817794 -345.81797409 139.21138 C-346.22497057 150.67764558 -346.22497057 150.67764558 -340.71276855 160.3885498 C-340.20814087 160.84169556 -339.70351318 161.29484131 -339.18359375 161.76171875 C-338.38179688 162.50421875 -337.58 163.24671875 -336.75390625 164.01171875 C-293.70436286 194.82033766 -233.55269513 198.98339685 -182.43359375 199.01171875 C-180.78419296 199.01273087 -180.78419296 199.01273087 -179.10147095 199.01376343 C-141.66188377 198.97748377 -104.20409585 195.62698622 -68.18359375 184.76171875 C-67.28688965 184.5002002 -66.39018555 184.23868164 -65.46630859 183.96923828 C-59.97358781 182.11941074 -57.09771784 180.33142064 -54.37890625 175.18017578 C-53.98445313 174.38208496 -53.59 173.58399414 -53.18359375 172.76171875 C-52.08488981 170.79901535 -50.9802235 168.83964315 -49.87109375 166.8828125 C-48.6406304 164.65566382 -47.41152561 162.42776416 -46.18359375 160.19921875 C-45.52250579 159.00841155 -44.86087636 157.81790481 -44.19873047 156.62768555 C-40.97197131 150.82429142 -37.77201231 145.00948194 -34.62890625 139.16015625 C-33.52225103 137.13144735 -32.41548579 135.10279845 -31.30859375 133.07421875 C-30.57962891 131.68771118 -30.57962891 131.68771118 -29.8359375 130.27319336 C-27.15096905 125.39319121 -24.93125088 122.45984668 -20.3359375 119.2734375 C-17.18585517 116.65377345 -15.94429035 114.76512067 -15.46484375 110.7668457 C-15.18726617 105.92199387 -15.39690656 101.10453812 -15.62109375 96.26171875 C-15.66629309 94.5639083 -15.70734815 92.86598218 -15.74414062 91.16796875 C-15.84278079 87.02967215 -15.9977358 82.89697879 -16.18359375 78.76171875 C-17.91959994 78.76171875 -19.27918083 79.8701134 -20.76953125 80.703125 Z M-1.18359375 141.76171875 C-1.67218872 142.67159546 -1.67218872 142.67159546 -2.1706543 143.59985352 C-8.71574608 155.77329041 -15.34225593 167.89166136 -22.16918945 179.90942383 C-28.27989894 190.6720986 -34.27603894 201.49778373 -40.27636719 212.32226562 C-43.40852791 217.9707398 -46.54631293 223.61608732 -49.68359375 229.26171875 C-50.9336214 231.51170339 -52.18362138 233.7617034 -53.43359375 236.01171875 C-55.93359375 240.51171875 -58.43359375 245.01171875 -60.93359375 249.51171875 C-61.86196045 251.18282715 -61.86196045 251.18282715 -62.80908203 252.88769531 C-64.05734384 255.13450154 -65.30571599 257.38124648 -66.55419922 259.62792969 C-69.70670754 265.30129322 -72.85720691 270.97575597 -76.00390625 276.65234375 C-83.07330781 289.40041528 -90.18796622 302.1208432 -97.37890625 314.80078125 C-97.84586914 315.62739258 -98.31283203 316.45400391 -98.79394531 317.30566406 C-99.74407046 318.98490843 -100.69939736 320.66121743 -101.65917969 322.33496094 C-102.1184082 323.14352539 -102.57763672 323.95208984 -103.05078125 324.78515625 C-103.46183105 325.50364746 -103.87288086 326.22213867 -104.29638672 326.96240234 C-105.33100759 328.72632417 -105.33100759 328.72632417 -105.18359375 330.76171875 C-35.88359375 330.76171875 33.41640625 330.76171875 104.81640625 330.76171875 C99.94451635 321.01793895 95.08487713 311.42391373 89.75390625 301.94921875 C88.7747147 300.1977071 87.79552909 298.4461921 86.81668091 296.69448853 C85.81358684 294.90038139 84.80900454 293.10711403 83.80419922 291.31396484 C80.62589254 285.63862498 77.47289894 279.94920872 74.31640625 274.26171875 C73.06909318 272.0168811 71.82169716 269.77208953 70.57421875 267.52734375 C68.04585175 262.97654665 65.52008141 258.4243211 62.99609375 253.87109375 C57.16347341 243.35340077 51.31379514 232.84709806 45.37890625 222.38671875 C40.50575661 213.79482383 35.70675227 205.16368435 30.94140625 196.51171875 C30.2663622 195.28661846 29.59131337 194.0615208 28.91625977 192.83642578 C27.56150654 190.37737757 26.20694947 187.91822142 24.85253906 185.45898438 C24.51677856 184.84933838 24.18101807 184.23969238 23.83508301 183.61157227 C23.15456181 182.37578818 22.47414231 181.1399481 21.79382324 179.90405273 C19.47245873 175.68747597 17.14540811 171.47408203 14.81640625 167.26171875 C14.23004395 166.1953418 13.64368164 165.12896484 13.03955078 164.03027344 C8.86248094 156.48574434 4.59990809 148.94280505 -0.18359375 141.76171875 C-0.51359375 141.76171875 -0.84359375 141.76171875 -1.18359375 141.76171875 Z M-345.18359375 195.76171875 C-345.32293069 205.40219206 -345.42938439 215.04231604 -345.49446678 224.68357849 C-345.52571156 229.1609975 -345.56805716 233.63772501 -345.63623047 238.11474609 C-345.70167041 242.43958276 -345.7373513 246.76375654 -345.75285721 251.08905029 C-345.76389969 252.73486765 -345.78546372 254.3806508 -345.81797409 256.02618408 C-346.24709712 267.59639306 -346.24709712 267.59639306 -340.71276855 277.39624023 C-339.95582703 278.0721521 -339.95582703 278.0721521 -339.18359375 278.76171875 C-338.38179688 279.50421875 -337.58 280.24671875 -336.75390625 281.01171875 C-311.04797164 299.40829815 -279.26115837 306.84989297 -248.49609375 311.57421875 C-246.61349854 311.86643311 -246.61349854 311.86643311 -244.69287109 312.16455078 C-224.49561231 315.08441943 -204.25490429 316.09954372 -183.86206055 316.02246094 C-180.48663531 316.01168856 -177.11173805 316.02246949 -173.73632812 316.03515625 C-167.21524907 316.04344669 -160.70235538 315.92498607 -154.18359375 315.76171875 C-153.13040955 315.74584717 -152.07722534 315.72997559 -150.99212646 315.71362305 C-139.73976007 315.95547686 -139.73976007 315.95547686 -129.73779297 311.84936523 C-128.11694715 309.21329649 -127.17869314 306.68873876 -126.18359375 303.76171875 C-125.08145364 301.71795089 -123.94250304 299.69373669 -122.7734375 297.6875 C-121.55451395 295.48388852 -120.33712804 293.27942595 -119.12109375 291.07421875 C-117.78645929 288.66073579 -116.45016043 286.24817768 -115.11328125 283.8359375 C-114.77976151 283.2339856 -114.44624176 282.63203369 -114.10261536 282.01184082 C-111.01789914 276.45064635 -107.8862515 270.91672671 -104.74609375 265.38671875 C-99.98094933 256.97988878 -95.26125794 248.54849948 -90.58053589 240.09442139 C-89.86402871 238.8009379 -89.14653753 237.50799895 -88.42800903 236.21563721 C-87.42298548 234.40710744 -86.42190497 232.59645091 -85.421875 230.78515625 C-84.55622925 229.221604 -84.55622925 229.221604 -83.6730957 227.62646484 C-82.33100228 225.04522828 -81.20569267 222.48293588 -80.18359375 219.76171875 C-86.58746659 220.49335506 -92.93796784 221.50352098 -99.30078125 222.52636719 C-112.55369874 224.65652288 -125.78863888 226.74830194 -139.18359375 227.76171875 C-140.25061523 227.84711914 -141.31763672 227.93251953 -142.41699219 228.02050781 C-196.19801933 231.89474137 -252.45322137 228.86428238 -304.18359375 212.76171875 C-305.10043945 212.47683594 -306.01728516 212.19195312 -306.96191406 211.8984375 C-317.40229793 208.58834837 -327.21701313 204.58418657 -336.8984375 199.4609375 C-339.63352421 198.04623748 -342.32062031 196.87687417 -345.18359375 195.76171875 Z M-345.18359375 312.76171875 C-345.27637626 322.30643059 -345.3474004 331.85098658 -345.39084244 341.39605141 C-345.41169514 345.82848697 -345.43997008 350.26061342 -345.48535156 354.69287109 C-345.52889252 358.97227379 -345.55274829 363.25137963 -345.56310272 367.53098679 C-345.57047934 369.16165208 -345.58488435 370.79230159 -345.60651398 372.42284012 C-345.63565884 374.71144652 -345.63954531 376.99883479 -345.63769531 379.28759766 C-345.64657776 380.58887604 -345.65546021 381.89015442 -345.66461182 383.23086548 C-344.69433919 390.35303099 -339.5279287 394.87181846 -334.32421875 399.3984375 C-302.3095721 423.48906092 -254.96902753 428.96320182 -216.18359375 431.76171875 C-214.83333191 431.87368076 -213.48307144 431.98565931 -212.1328125 432.09765625 C-155.37235386 436.38133472 -73.76005031 435.24180567 -26.49609375 398.78515625 C-22.53668176 395.32067076 -18.55916107 391.5128534 -16.18359375 386.76171875 C-16.09867875 384.87532755 -16.07640075 382.9859336 -16.0859375 381.09765625 C-16.09077148 379.41542969 -16.09077148 379.41542969 -16.09570312 377.69921875 C-16.10408203 376.52359375 -16.11246094 375.34796875 -16.12109375 374.13671875 C-16.12786133 372.36167969 -16.12786133 372.36167969 -16.13476562 370.55078125 C-16.14657908 367.62104368 -16.16305117 364.69140603 -16.18359375 361.76171875 C-17.37883163 361.75807312 -18.57406952 361.75442749 -19.80552673 361.75067139 C-31.09016824 361.71367001 -42.37453816 361.65584087 -53.65897274 361.57781601 C-59.45991557 361.53837016 -65.26070725 361.50616733 -71.06176758 361.49072266 C-76.66406001 361.47553727 -82.26593683 361.44105765 -87.8680439 361.39340973 C-90.00133202 361.37861545 -92.13467948 361.37067886 -94.26801872 361.3698349 C-97.26498176 361.36745767 -100.26080324 361.34031641 -103.25756836 361.30761719 C-104.56956459 361.31516273 -104.56956459 361.31516273 -105.9080658 361.32286072 C-113.79552075 361.19041567 -120.67266703 358.70102523 -126.55859375 353.32421875 C-127.18507812 352.76863281 -127.8115625 352.21304688 -128.45703125 351.640625 C-130.41104427 349.51419906 -131.73001203 347.24953074 -133.18359375 344.76171875 C-135.00177612 344.86564941 -135.00177612 344.86564941 -136.85668945 344.97167969 C-203.96141521 348.60253916 -278.21408822 347.30331806 -339.12890625 315.328125 C-342.10978716 313.70216021 -342.10978716 313.70216021 -345.18359375 312.76171875 Z " fill="#000000" transform="translate(376.18359375,47.23828125)"/>
<path d="M0 0 C4.60781854 2.2185793 8.07016997 5.20622309 10 10 C10.59751303 14.42626753 10.56036068 18.8203644 10.53125 23.28125 C10.5350769 24.56809692 10.53890381 25.85494385 10.54284668 27.18078613 C10.54872549 29.89757614 10.54023231 32.61383807 10.52148438 35.33056641 C10.49869436 38.80085539 10.51182635 42.2699068 10.53577423 45.74015045 C10.55376143 49.06644767 10.54114205 52.3924177 10.53125 55.71875 C10.53934692 56.95951294 10.54744385 58.20027588 10.55578613 59.4786377 C10.43972092 70.1696162 10.43972092 70.1696162 6 75 C1.66678361 78.92052912 -1.87112205 79.63392313 -7.53125 79.38671875 C-12.49209012 78.60962512 -15.82077112 76.57230518 -18.875 72.5 C-20.66537192 68.52139573 -21.1285226 65.1452357 -21.16113281 60.79174805 C-21.17074036 59.75354416 -21.1803479 58.71534027 -21.19024658 57.64567566 C-21.19449646 56.52896988 -21.19874634 55.4122641 -21.203125 54.26171875 C-21.20882507 53.10758987 -21.21452515 51.953461 -21.22039795 50.76435852 C-21.2298419 48.32248856 -21.23637953 45.88060589 -21.24023438 43.4387207 C-21.24993576 39.71217499 -21.28096405 35.98618183 -21.3125 32.25976562 C-21.31903077 29.88541994 -21.32428095 27.51107031 -21.328125 25.13671875 C-21.3404718 24.02608566 -21.3528186 22.91545258 -21.36553955 21.77116394 C-21.34638064 15.08293524 -21.08114984 9.49667387 -16.46484375 4.2578125 C-10.74526098 0.01566671 -7.08847954 -0.77428007 0 0 Z " fill="#000000" transform="translate(381,237)"/>
<path d="M0 0 C3.64413738 3.2103115 5.29943594 5.84464403 5.94140625 10.7109375 C6.2069504 16.41585366 5.58701333 19.93343263 1.625 24.3125 C-2.70821639 28.23302912 -6.24612205 28.94642313 -11.90625 28.69921875 C-16.78538489 27.93492389 -20.05517904 25.89628515 -23.25 22.0625 C-25.39569192 16.8174753 -26.00891808 12.4291989 -24.25 7.0625 C-22.27961758 2.49479529 -19.34919062 0.46411119 -15.125 -2 C-9.68495553 -3.36001112 -4.96900558 -2.48450279 0 0 Z " fill="#000000" transform="translate(385.375,334.6875)"/>
</svg>
