<?xml version="1.0" encoding="UTF-8"?>
<svg xmlns="http://www.w3.org/2000/svg" width="512" viewBox="0 0 512 512">
<path d="M0 0 C1.01098045 -0.00623996 2.0219609 -0.01247993 3.06357712 -0.01890898 C6.41973941 -0.03474517 9.77516592 -0.0222713 13.1313324 -0.00964355 C15.55020061 -0.01506878 17.96906551 -0.02219369 20.38792419 -0.03088379 C26.25664379 -0.04718587 32.12517529 -0.04486078 37.99388952 -0.03323323 C42.76615557 -0.0241722 47.53836432 -0.02298639 52.31063652 -0.02732849 C52.99177313 -0.02794142 53.67290974 -0.02855436 54.37468685 -0.02918586 C55.75871168 -0.03046486 57.14273649 -0.03176171 58.52676129 -0.03307623 C71.48100161 -0.04446122 84.43512841 -0.03140065 97.38935011 -0.00987476 C108.48878511 0.0079984 119.58805275 0.00488634 130.68748474 -0.0135498 C143.59927288 -0.03498645 156.51096174 -0.04336701 169.4227652 -0.03110075 C170.80118078 -0.02982665 172.17959639 -0.02856916 173.55801201 -0.02732849 C174.23609526 -0.02671139 174.91417851 -0.02609429 175.61280974 -0.02545848 C180.37621112 -0.02201425 185.13954918 -0.02781377 189.90294075 -0.0372467 C196.32085357 -0.04967762 202.73852533 -0.04074759 209.15641022 -0.01766968 C211.50816004 -0.01239203 213.85993651 -0.01388012 216.21167564 -0.02272034 C219.42874447 -0.03369617 222.64481096 -0.01988665 225.86181641 0 C227.24846515 -0.01338433 227.24846515 -0.01338433 228.66312701 -0.02703905 C237.70440639 0.08092516 245.33733937 2.78258237 251.87742615 9.15563965 C252.36525605 9.62405934 252.85308596 10.09247904 253.35569859 10.57509327 C255.04186773 12.20412228 256.704472 13.85521838 258.36741638 15.50793457 C259.69620782 16.80914124 261.02566029 18.10967309 262.35566711 19.40963745 C266.99772905 23.96310362 271.60398549 28.55202668 276.20726013 33.14465332 C277.03952181 33.97408762 277.87178349 34.80352192 278.72926521 35.65809059 C283.12085281 40.03480111 287.50964676 44.41428926 291.89598083 48.79626465 C296.41039683 53.3051663 300.93404291 57.80468925 305.45984554 62.3021574 C308.95908578 65.78275518 312.4515818 69.27006114 315.94227791 72.75922585 C317.60748755 74.42141972 319.27518504 76.08112529 320.94546318 77.73822594 C323.27809743 80.05374217 325.60101376 82.37860909 327.92185974 84.70593262 C328.60503769 85.37989578 329.28821564 86.05385895 329.99209595 86.74824524 C337.5610335 94.38331264 342.61088579 101.99479969 342.62468529 113.07200909 C342.63113418 114.38344503 342.63758307 115.69488098 342.64422739 117.0460574 C342.64128533 118.49466915 342.63814991 119.94328052 342.63484192 121.39189148 C342.63857933 122.93603259 342.64318121 124.48017181 342.64857256 126.02430803 C342.66080704 130.26512707 342.66054156 134.50586726 342.65818381 138.74669993 C342.65777575 143.3215021 342.66881382 147.89627895 342.67829895 152.47106934 C342.69491289 161.4335735 342.70040869 170.39605137 342.70152371 179.35856964 C342.70247409 186.64475919 342.70658391 193.93094005 342.71292496 201.21712685 C342.73053923 221.87753322 342.73976366 242.53791881 342.73826401 263.19833275 C342.7381841 264.31217371 342.73810418 265.42601468 342.73802185 266.5736084 C342.73794009 267.68881051 342.73785833 268.80401263 342.73777409 269.95300875 C342.73696136 288.02240663 342.75609518 306.09172111 342.78429858 324.16109487 C342.81303309 342.71727751 342.82683853 361.27341949 342.82511103 379.82962495 C342.82444728 390.24639393 342.82993309 400.66307551 342.85146713 411.07982445 C342.86968646 419.94997853 342.87402014 428.82000561 342.86044829 437.69017031 C342.85392217 442.21408394 342.85378851 446.73775397 342.87115479 451.26164436 C342.88690657 455.40769365 342.88400055 459.55330661 342.86658652 463.69934539 C342.86352122 465.19464319 342.86713126 466.68997372 342.87830667 468.1852329 C342.97019293 481.35799597 340.67513034 491.75787381 331.36741638 501.50793457 C321.55840941 510.87192043 311.14194273 513.11329228 297.89427185 513.01586914 C296.57773054 513.0221091 295.26118923 513.02834907 293.90475273 513.03477812 C290.27939421 513.0513651 286.65446075 513.04327417 283.02910137 513.03083324 C279.10809237 513.02174109 275.18715382 513.03577302 271.26615906 513.04675293 C263.59636855 513.06449851 255.92673501 513.0607159 248.25693846 513.04910237 C242.02110733 513.04005268 235.78532006 513.03885067 229.54948425 513.04319763 C228.66048427 513.04381056 227.7714843 513.0444235 226.85554492 513.045055 C225.04931083 513.04633396 223.24307675 513.04763081 221.43684268 513.04894537 C204.51721709 513.06033956 187.59767832 513.0472557 170.67806697 513.0257439 C156.17408269 513.00787397 141.67022648 513.01097841 127.16624451 513.02941895 C110.30535081 513.05084619 93.44453312 513.05924103 76.5836277 513.04696989 C74.78420132 513.04569575 72.98477492 513.04443827 71.18534851 513.04319763 C70.3000977 513.04258053 69.41484689 513.04196343 68.5027703 513.04132763 C62.27760034 513.03788029 56.05247876 513.04368977 49.82731628 513.05311584 C42.23635399 513.06435783 34.64555705 513.06124969 27.05461359 513.03999287 C23.1848227 513.02951193 19.31530708 513.02530976 15.44551849 513.03858948 C11.24362844 513.0527903 7.04242773 513.03578457 2.84056091 513.01586914 C1.62722013 513.02479203 0.41387936 513.03371491 -0.83622932 513.04290819 C-12.65639876 512.93444656 -22.01462995 509.73490357 -30.63258362 501.50793457 C-41.41285755 490.21533079 -42.22106465 478.04073747 -42.14051819 463.17541504 C-42.14513197 461.31759592 -42.15148808 459.45978046 -42.15942717 457.60197258 C-42.17607802 452.51725381 -42.16789339 447.43283653 -42.15548229 442.34811687 C-42.14641676 436.85654883 -42.16040899 431.36503194 -42.17140198 425.87347412 C-42.1891757 415.1235742 -42.18535229 404.37378609 -42.17375141 393.62388182 C-42.16471288 384.88614708 -42.16349492 376.14844364 -42.16784668 367.41070557 C-42.16845961 366.16645935 -42.16907254 364.92221313 -42.16970405 363.64026248 C-42.17098297 361.11249239 -42.17227982 358.58472231 -42.17359442 356.05695224 C-42.1846719 333.03693854 -42.17318985 310.01697433 -42.15222403 286.99697277 C-42.13324252 265.99603679 -42.13494107 244.99519783 -42.15406799 223.9942627 C-42.17550064 200.38295302 -42.18389825 176.77168465 -42.17161894 153.16036415 C-42.17034476 150.64196397 -42.16908728 148.12356377 -42.16784668 145.60516357 C-42.16722958 144.36610665 -42.16661248 143.12704973 -42.16597667 141.85044563 C-42.16252496 133.12458802 -42.1683483 124.39876487 -42.17776489 115.6729126 C-42.18899056 105.03703071 -42.18593276 94.40126689 -42.16464192 83.7653985 C-42.15413927 78.34022938 -42.14999645 72.91525702 -42.16323853 67.49008942 C-42.17518428 62.5208128 -42.16856369 57.55191478 -42.14732832 52.58267236 C-42.14287153 50.7880701 -42.14510768 48.99343566 -42.15483147 47.19885421 C-42.22479826 33.20960472 -40.66083101 22.01277193 -30.63258362 11.50793457 C-21.83395159 3.10848433 -12.02050965 -0.11630605 0 0 Z M-19.88258362 25.94543457 C-25.28951061 32.58056692 -25.75670605 39.60792601 -25.76121807 47.96778584 C-25.76297111 48.70138996 -25.76472415 49.43499409 -25.76653031 50.19082865 C-25.77118418 52.65033476 -25.76872638 55.1097816 -25.76629639 57.56929016 C-25.76816467 59.34996851 -25.77046544 61.13064644 -25.77316171 62.91132373 C-25.779284 67.80587667 -25.77914561 72.70041254 -25.77796733 77.59496844 C-25.77776344 82.87320572 -25.78328103 88.15143751 -25.7880249 93.42967224 C-25.79633432 103.77114091 -25.79907987 114.11260388 -25.79963728 124.45407561 C-25.80011229 132.85917733 -25.8021663 141.26427716 -25.80533791 149.66937828 C-25.81414519 173.49415165 -25.81875715 197.31892051 -25.81800743 221.14369551 C-25.81796748 222.42832067 -25.81792752 223.71294583 -25.81788635 225.03649902 C-25.81784547 226.3226908 -25.81780459 227.60888258 -25.81776247 228.93404987 C-25.81735596 249.78214391 -25.8269267 270.6302199 -25.84102472 291.47830871 C-25.85538292 312.87984827 -25.86229521 334.28137901 -25.86143094 355.6829235 C-25.86109879 367.70032907 -25.86385407 379.71771572 -25.87460899 391.73511696 C-25.88370667 401.9663701 -25.88589526 412.19759573 -25.87909957 422.42885116 C-25.8758307 427.64913899 -25.87579096 432.869374 -25.88445282 438.08965683 C-25.89230243 442.86956314 -25.89090211 447.64937462 -25.88216869 452.42927857 C-25.88063031 454.15737755 -25.88246255 455.88548355 -25.88802876 457.61357424 C-26.32037008 473.52740906 -26.32037008 473.52740906 -19.63258362 487.50793457 C-12.65446841 494.4362061 -6.01601217 496.62900123 3.82824421 496.63656902 C4.89359247 496.63979347 5.95894072 496.64301792 7.05657226 496.64634007 C8.79542049 496.64401717 8.79542049 496.64401717 10.56939697 496.64164734 C11.80957335 496.6439129 13.04974972 496.64617845 14.3275072 496.64851266 C17.76267136 496.65374383 21.19778314 496.65449823 24.63294756 496.65331829 C28.34061916 496.65311403 32.04828297 496.65863541 35.75595093 496.66337585 C43.01729607 496.67167755 50.2786331 496.67443048 57.53998259 496.67498823 C63.44317731 496.67546362 69.34636935 496.6775195 75.24956322 496.68068886 C91.99113335 496.68949411 108.73269708 496.69410843 125.47426955 496.69335838 C126.82770413 496.69329845 126.82770413 496.69329845 128.20848083 496.6932373 C129.56357047 496.69317598 129.56357047 496.69317598 130.94603565 496.69311342 C145.58626759 496.69270699 160.2264738 496.70227629 174.8666983 496.71637567 C189.90400856 496.73074305 204.94130627 496.73764566 219.97862357 496.7367819 C228.41898573 496.73645005 236.85932092 496.73919162 245.2996769 496.74995995 C252.48599647 496.7590697 259.67227685 496.76123629 266.8585997 496.75445052 C270.52349104 496.75118772 274.18830721 496.75111994 277.85319138 496.75980377 C281.83032392 496.76913036 285.80734696 496.76288644 289.78448486 496.75517273 C291.51329485 496.76288807 291.51329485 496.76288807 293.27703029 496.77075928 C303.11801604 496.72858831 311.72392529 496.19202632 318.99632263 488.86730957 C325.15440035 482.04148848 326.49370484 475.37850552 326.49046421 466.27233315 C326.49245526 465.03423161 326.49444631 463.79613008 326.49649769 462.52051032 C326.49364503 461.15471543 326.49069944 459.78892073 326.4876709 458.42312622 C326.48810711 456.96601797 326.48898295 455.5089098 326.49026006 454.05180204 C326.49249515 450.05199411 326.4884972 446.05221297 326.483482 442.05240846 C326.47916356 437.73754519 326.48062492 433.42268343 326.48138428 429.1078186 C326.48190863 421.63340522 326.4787711 414.15900057 326.47314644 406.68458939 C326.46501941 395.87784524 326.46241498 385.07110532 326.46115845 374.26435845 C326.45896982 356.73112752 326.45231486 339.19790125 326.44285583 321.66467285 C326.43367683 304.63277205 326.42659838 287.60087251 326.42234802 270.56896973 C326.4220853 269.51912362 326.42182258 268.46927752 326.42155189 267.3876179 C326.42024685 262.12084863 326.41898315 256.85407936 326.41773999 251.58731008 C326.40737327 207.89418168 326.38976009 164.20105837 326.36741638 120.50793457 C325.47729355 120.50428894 324.58717072 120.50064331 323.67007446 120.49688721 C315.24093125 120.45886529 306.81216938 120.40185271 298.38329601 120.32403183 C294.05092137 120.28468825 289.71874598 120.25243599 285.38621521 120.23693848 C281.19732971 120.22168471 277.00899251 120.18708712 272.82035255 120.13962555 C271.23020025 120.12490095 269.63996962 120.11689873 268.04974937 120.11605072 C254.61612211 120.10169536 243.30916678 118.33713685 233.36741638 108.50793457 C223.88540798 97.36565233 222.91065284 86.655931 222.85569763 72.66027832 C222.83882762 71.03644981 222.82067429 69.41263418 222.80130005 67.78883362 C222.75404572 63.54257227 222.72407823 59.29636314 222.69786072 55.04992676 C222.66793034 50.70574638 222.62144327 46.36174551 222.57640076 42.0177002 C222.49064761 33.5145337 222.42317884 25.01135041 222.36741638 16.50793457 C193.31688772 16.46120629 164.26636469 16.42594164 135.21580601 16.40431023 C132.53009602 16.40227055 129.84438607 16.40018791 127.15867615 16.39807129 C126.49113923 16.39754667 125.82360232 16.39702205 125.13583701 16.39648153 C114.33634005 16.38778603 103.53686445 16.37202078 92.73738015 16.35362898 C81.65078726 16.33490611 70.56420307 16.32396244 59.47759479 16.31975758 C53.25266643 16.31715114 47.02778646 16.3110285 40.80287361 16.29647446 C34.94166736 16.28288203 29.08052937 16.27871532 23.21930885 16.28171921 C21.07032144 16.28116979 18.9213317 16.27720229 16.77235794 16.26952362 C13.83269317 16.25953645 10.89328429 16.2619795 7.95361328 16.26742554 C6.68557801 16.25868701 6.68557801 16.25868701 5.39192587 16.24977195 C-4.86682425 16.30095127 -12.78636183 18.07974295 -19.88258362 25.94543457 Z M238.36741638 21.50793457 C238.32087073 29.0451107 238.28543502 36.58227172 238.26379204 44.11955929 C238.25339925 47.62024486 238.23932348 51.12083138 238.21653748 54.62145996 C238.19044842 58.65524188 238.1809064 62.68892135 238.17210388 66.72277832 C238.16178131 67.96687973 238.15145874 69.21098114 238.14082336 70.49278259 C238.1396494 79.66728067 238.28755057 88.11350317 244.36741638 95.50793457 C251.5608864 102.65002266 258.34932141 104.64316653 268.46458435 104.62145996 C269.64535553 104.62138443 270.82612671 104.6213089 272.04267883 104.62123108 C273.3022641 104.61606979 274.56184937 104.61090851 275.85960388 104.60559082 C277.81121933 104.6034684 277.81121933 104.6034684 279.80226135 104.6013031 C283.24471492 104.59750301 286.68712563 104.5876944 290.12956238 104.57659912 C293.64894532 104.56633082 297.16833525 104.56179391 300.68772888 104.5567627 C307.58097554 104.54606966 314.4741939 104.52902368 321.36741638 104.50793457 C317.03945194 99.33593498 312.49981749 94.49688443 307.72557068 89.73669434 C306.98502945 88.99440079 306.24448822 88.25210724 305.48150635 87.48731995 C303.05404418 85.05548647 300.62297868 82.62729323 298.19163513 80.19934082 C296.49852115 78.50555288 294.80555561 76.81161654 293.11273193 75.11753845 C289.57644685 71.57978317 286.03836921 68.04383312 282.49900818 64.50915527 C277.95127117 59.96714139 273.4080731 55.42061793 268.86618328 50.87275791 C265.37744149 47.38041451 261.88633627 43.89044157 258.39449501 40.40119743 C256.71713055 38.724502 255.04051396 37.04705807 253.364645 35.36886787 C251.03292926 33.03462936 248.69806135 30.70359177 246.36228943 28.37341309 C245.66465485 27.67375427 244.96702026 26.97409546 244.24824524 26.25323486 C243.61606583 25.62387527 242.98388641 24.99451569 242.33255005 24.34608459 C241.78081462 23.79472619 241.22907919 23.24336779 240.6606245 22.67530155 C239.53406023 21.39625666 239.53406023 21.39625666 238.36741638 21.50793457 Z " fill="#000000" transform="translate(105.63258361816406,-0.5079345703125)"/>
<path d="M0 0 C14.35405709 11.70876043 26.07041707 27.89201113 28.30664062 46.72021484 C29.58026496 65.79273919 28.39297802 83.42553339 15.79101562 98.78662109 C8.01426675 107.62854555 -0.69890142 115.18534923 -10.17724609 122.1328125 C-13.63280727 124.71207799 -16.56151522 126.95277529 -18.69335938 130.72021484 C-19.35351867 135.48845935 -19.20008195 140.28148393 -19.18164062 145.08544922 C-19.29180335 152.77180331 -20.53316976 158.11395473 -25.65820312 163.96240234 C-26.30917969 164.50123047 -26.96015625 165.04005859 -27.63085938 165.59521484 C-28.60345703 166.42666016 -28.60345703 166.42666016 -29.59570312 167.27490234 C-36.09693494 171.75433581 -43.06476854 171.39485213 -50.69335938 170.72021484 C-57.35295271 169.03935902 -61.87883385 164.25643162 -65.69335938 158.72021484 C-68.6694188 152.67822185 -68.1027857 146.16379812 -68.11889648 139.58569336 C-68.13066494 137.32014586 -68.17976247 135.05744338 -68.23046875 132.79248047 C-68.39757959 117.90523939 -64.49433985 106.25948242 -54.69335938 94.72021484 C-54.13390625 94.06021484 -53.57445312 93.40021484 -52.99804688 92.72021484 C-47.93823499 87.27467739 -41.91471955 82.94261563 -35.94750977 78.55078125 C-27.71974874 72.64517172 -27.71974874 72.64517172 -21.69335938 64.72021484 C-20.99850003 57.31597589 -21.05844098 50.79168689 -25.69335938 44.72021484 C-30.05543515 40.08938559 -34.30497055 37.13237482 -40.74414062 36.34912109 C-48.11405889 36.19907485 -53.12372632 36.67850909 -58.69335938 41.72021484 C-64.8940234 47.79368576 -66.16518475 54.45707366 -67.37304688 62.74951172 C-68.43633282 69.12318599 -71.12964666 73.76596212 -76.13085938 77.97021484 C-76.68644531 78.44974609 -77.24203125 78.92927734 -77.81445312 79.42333984 C-84.18419424 83.81991791 -91.24360876 83.37903633 -98.69335938 82.72021484 C-105.35295271 81.03935902 -109.87883385 76.25643162 -113.69335938 70.72021484 C-118.40823254 61.87196954 -116.43775997 48.36491822 -114.19335938 38.97021484 C-108.50286815 20.55047146 -96.44448768 3.9477122 -79.15429688 -5.21728516 C-54.07967623 -17.82087913 -22.90831524 -17.31334898 0 0 Z M-77.69335938 14.72021484 C-78.32757813 15.15849609 -78.96179688 15.59677734 -79.61523438 16.04833984 C-88.65087592 22.92869075 -94.68270224 33.98578851 -97.69335938 44.72021484 C-97.88285156 45.34798828 -98.07234375 45.97576172 -98.26757812 46.62255859 C-98.85197476 49.50165027 -98.94188879 52.28430158 -99.00585938 55.22021484 C-99.04324219 56.34427734 -99.080625 57.46833984 -99.11914062 58.62646484 C-98.94310241 61.80334185 -98.94310241 61.80334185 -96.86132812 64.09521484 C-94.73317272 65.94999961 -94.73317272 65.94999961 -91.69335938 66.22021484 C-87.91684003 65.59079495 -87.02979746 64.72352129 -84.69335938 61.72021484 C-84.05321649 59.11945496 -83.60157473 56.73052547 -83.25585938 54.09521484 C-81.4095665 42.64509602 -76.89615351 32.93963089 -67.26757812 25.96240234 C-56.2883269 19.06496683 -44.01701349 17.87755184 -31.39257812 20.37255859 C-19.74342903 24.21166996 -12.3631012 32.17840951 -6.59570312 42.72802734 C-3.04247601 51.15661259 -3.14202201 62.67011662 -5.79492188 71.30615234 C-10.24433106 80.75222426 -17.37541063 86.76734003 -25.69335938 92.78271484 C-37.99098142 101.74678608 -48.31308455 110.60245212 -51.38085938 126.22021484 C-51.77375591 130.41668417 -51.86540269 134.63268407 -51.94335938 138.84521484 C-51.96487061 139.52648437 -51.98638184 140.20775391 -52.00854492 140.90966797 C-52.03875349 145.59256655 -51.17615532 148.75497277 -48.69335938 152.72021484 C-45.85252296 154.14063305 -43.8385866 154.03473757 -40.69335938 153.72021484 C-37.84555319 151.48815053 -36.84338271 150.17028486 -35.69335938 146.72021484 C-35.61383374 145.05246883 -35.58502079 143.38204088 -35.58789062 141.71240234 C-35.57306641 140.72498047 -35.55824219 139.73755859 -35.54296875 138.72021484 C-35.51850913 136.66045765 -35.5128563 134.60037882 -35.52734375 132.54052734 C-35.3349855 123.54049278 -32.40955205 118.33333064 -26.01757812 112.11865234 C-25.14746094 111.45091797 -24.27734375 110.78318359 -23.38085938 110.09521484 C-22.42824219 109.35142578 -21.475625 108.60763672 -20.49414062 107.84130859 C-19.56988281 107.14134766 -18.645625 106.44138672 -17.69335938 105.72021484 C-14.67926312 103.40432686 -11.67445657 101.07847566 -8.69335938 98.72021484 C-7.93023437 98.11822266 -7.16710937 97.51623047 -6.38085938 96.89599609 C-0.41414479 91.92709357 3.649587 86.56061049 7.30664062 79.72021484 C7.74234375 78.91326172 8.17804688 78.10630859 8.62695312 77.27490234 C13.77508565 65.7906067 12.86122445 50.23795619 8.63867188 38.61474609 C6.34121489 33.62232489 3.5397375 29.15499374 0.30664062 24.72021484 C-0.13164062 24.08599609 -0.56992187 23.45177734 -1.02148438 22.79833984 C-8.80005114 12.5831136 -21.43542401 6.45626044 -33.69335938 3.72021484 C-50.39117435 2.30182986 -63.95616826 4.70535938 -77.69335938 14.72021484 Z " fill="#000000" transform="translate(299.693359375,149.27978515625)"/>
<path d="M0 0 C5.82485779 3.51996782 10.54466582 8.98962934 12.5625 15.5 C13.36764105 23.33608208 13.68710392 31.11922577 8.5625 37.5 C3.75801361 42.54521222 -0.59927055 46.10562995 -7.70703125 46.8359375 C-16.22326573 46.92983204 -22.11345494 46.6177288 -28.40234375 40.62890625 C-34.7841668 33.72505269 -35.91792252 28.29832071 -35.7421875 18.9453125 C-35.04689797 11.08319245 -31.38995981 6.95041296 -25.53515625 1.9453125 C-18.47077988 -2.92213491 -7.84396301 -3.47595223 0 0 Z M-16.8125 17.125 C-18.92456506 20.21186432 -19.04945145 21.8282913 -18.4375 25.5 C-16.9375 28 -16.9375 28 -14.4375 29.5 C-10.7657913 30.11195145 -9.14936432 29.98706506 -6.0625 27.875 C-3.95043494 24.78813568 -3.82554855 23.1717087 -4.4375 19.5 C-5.9375 17 -5.9375 17 -8.4375 15.5 C-12.1092087 14.88804855 -13.72563568 15.01293494 -16.8125 17.125 Z " fill="#000000" transform="translate(267.4375,329.5)"/>
</svg>
