<?xml version="1.0" encoding="UTF-8"?>
<svg version="1.1" xmlns="http://www.w3.org/2000/svg" width="1000" height="1000">
<path d="M0 0 C330 0 660 0 1000 0 C1000 330 1000 660 1000 1000 C670 1000 340 1000 0 1000 C0 670 0 340 0 0 Z " fill="#E1E9F0" transform="translate(0,0)"/>
<path d="M0 0 C159.06 0 318.12 0 482 0 C482 120.45 482 240.9 482 365 C322.94 365 163.88 365 0 365 C0 244.55 0 124.1 0 0 Z " fill="#E1EAF0" transform="translate(259,318)"/>
<path d="M0 0 C159.06 0 318.12 0 482 0 C482 120.45 482 240.9 482 365 C322.94 365 163.88 365 0 365 C0 244.55 0 124.1 0 0 Z M44 44 C43.979375 89.519375 43.95875 135.03875 43.9375 181.9375 C43.928396 196.33753662 43.91929199 210.73757324 43.90991211 225.57397461 C43.90656874 238.42456806 43.90656874 238.42456806 43.90455627 251.27516174 C43.90362046 257.02178859 43.89993852 262.7684058 43.89442444 268.51502991 C43.88808245 275.13419318 43.88515855 281.75334717 43.88655505 288.37251351 C43.88716041 291.76227304 43.88561719 295.15199502 43.88078487 298.54175365 C43.87586127 302.16175918 43.87699144 305.78171156 43.87974548 309.40171814 C43.87537649 311.00774572 43.87537649 311.00774572 43.87091923 312.6462183 C43.8729101 313.60993036 43.87490097 314.57364243 43.87695217 315.56655788 C43.87657245 316.40460065 43.87619273 317.24264342 43.8758015 318.10608143 C43.79174379 320.01151722 43.79174379 320.01151722 45 321 C47.07882931 321.09883302 49.16108644 321.12555718 51.24226379 321.12584114 C51.90496053 321.12729458 52.56765726 321.12874802 53.25043571 321.13024551 C55.49876661 321.13393108 57.74703079 321.13040735 59.99536133 321.12698364 C61.61243379 321.12813445 63.22950599 321.12972171 64.84657764 321.13171089 C69.31181164 321.13590972 73.77702444 321.13381104 78.24225855 321.13072467 C83.0493958 321.12847303 87.85652926 321.131949 92.66366577 321.13470459 C102.08939353 321.13916382 111.51511336 321.13818514 120.94084144 321.13529195 C128.59765676 321.13303851 136.25446984 321.13272513 143.9112854 321.13381577 C144.99880279 321.133969 146.08632019 321.13412223 147.20679265 321.13428011 C149.41568939 321.13459982 151.62458613 321.13492403 153.83348286 321.1352527 C174.57264225 321.13810794 195.31179723 321.13481978 216.05095589 321.12945233 C233.86698062 321.12498425 251.68299883 321.12576017 269.49902344 321.13037109 C290.16123786 321.13571608 310.8234484 321.13783324 331.48566341 321.13475883 C333.68668048 321.13444026 335.88769754 321.13412589 338.0887146 321.13381577 C339.17181012 321.13366149 340.25490565 321.13350721 341.37082225 321.13334826 C349.02322692 321.13248288 356.67562915 321.13394644 364.32803345 321.13629532 C373.64688209 321.13909268 382.96572231 321.13835641 392.28456998 321.13301457 C397.0440818 321.13037669 401.80357954 321.12937395 406.56309128 321.13266373 C410.91284102 321.13562492 415.26256352 321.13403686 419.61231077 321.12868617 C421.19304164 321.12756123 422.77377478 321.12815487 424.35450423 321.13056196 C426.48894848 321.13356504 428.62329711 321.13052244 430.75773621 321.12584114 C431.94761737 321.12567879 433.13749853 321.12551644 434.3634367 321.12534916 C436.9243634 321.29987967 436.9243634 321.29987967 438 320 C438.09674092 318.5247855 438.12371769 317.04494085 438.12304783 315.56655788 C438.1250387 314.60284582 438.12702957 313.63913376 438.12908077 312.6462183 C438.12616811 311.57553325 438.12325544 310.50484819 438.12025452 309.40171814 C438.12111053 308.27653778 438.12196655 307.15135742 438.12284851 305.99208069 C438.12451472 302.17821714 438.1189623 298.3643967 438.11352539 294.55053711 C438.11266434 291.78701787 438.11330761 289.02349946 438.11389065 286.2599802 C438.1144236 279.58551094 438.1097937 272.91105507 438.10338932 266.23658926 C438.09620643 258.52072125 438.09539551 250.80486135 438.09460449 243.08898926 C438.08934811 222.70515737 438.07538708 202.32132849 438.0625 181.9375 C438.041875 136.418125 438.02125 90.89875 438 44 C307.98 44 177.96 44 44 44 Z " fill="#FEFEFE" transform="translate(259,318)"/>
<path d="M0 0 C0.99 0 1.98 0 3 0 C3 0.66 3 1.32 3 2 C3.66 2 4.32 2 5 2 C6.72729366 3.62592261 8.36011384 5.28837607 10 7 C11.28574095 8.28721989 12.57476607 9.57116361 13.86616516 10.85270691 C14.59665573 11.58030716 15.3271463 12.30790741 16.07977295 13.05755615 C16.86596008 13.8406012 17.65214722 14.62364624 18.4621582 15.43041992 C26.99567554 23.93128277 35.52415512 32.43717769 44.04967976 40.94605541 C49.20758901 46.09362075 54.36738318 51.23927095 59.53149414 56.38061523 C64.04690029 60.8761255 68.55881311 65.3751072 73.06651753 69.87834054 C75.45044265 72.25965506 77.83610642 74.6391679 80.22597694 77.01451683 C82.8835505 79.65767686 85.5349053 82.30692296 88.18481445 84.95776367 C88.98112274 85.74688141 89.77743103 86.53599915 90.59786987 87.34902954 C91.31426132 88.06817032 92.03065277 88.7873111 92.76875305 89.52824402 C93.39645253 90.15409991 94.02415201 90.77995581 94.67087269 91.42477703 C96 93 96 93 96 95 C96.61875 95.2475 97.2375 95.495 97.875 95.75 C100.35068687 97.20628639 100.95125002 98.37812506 102 101 C106.10917051 98.77083225 109.26835205 96.00678167 112.5246582 92.70239258 C113.05208115 92.17526169 113.57950409 91.6481308 114.12290955 91.10502625 C115.85365379 89.37289597 117.57721804 87.63380467 119.30078125 85.89453125 C120.5038907 84.68768909 121.70744438 83.48128965 122.91142273 82.27531433 C126.0706204 79.10850054 129.22376423 75.93572555 132.37567139 72.76165771 C135.59641174 69.52041537 138.82286008 66.28486596 142.04882812 63.04882812 C148.37147463 56.70476738 154.68773818 50.35439228 161 44 C165.8359375 45.734375 165.8359375 45.734375 167.3125 48.125 C167.539375 48.74375 167.76625 49.3625 168 50 C168.66 50 169.32 50 170 50 C170 50.66 170 51.32 170 52 C170.66 52 171.32 52 172 52 C172 52.66 172 53.32 172 54 C173.32 54.66 174.64 55.32 176 56 C176 56.66 176 57.32 176 58 C176.66 58 177.32 58 178 58 C178 58.66 178 59.32 178 60 C178.66 60 179.32 60 180 60 C180 60.66 180 61.32 180 62 C181.32 62.66 182.64 63.32 184 64 C184 64.66 184 65.32 184 66 C184.66 66 185.32 66 186 66 C186 66.66 186 67.32 186 68 C186.66 68 187.32 68 188 68 C188 68.66 188 69.32 188 70 C189.32 70.66 190.64 71.32 192 72 C192 72.66 192 73.32 192 74 C192.66 74 193.32 74 194 74 C194 74.66 194 75.32 194 76 C194.66 76 195.32 76 196 76 C196 76.66 196 77.32 196 78 C197.32 78.66 198.64 79.32 200 80 C200 80.66 200 81.32 200 82 C200.66 82 201.32 82 202 82 C202 82.66 202 83.32 202 84 C202.66 84 203.32 84 204 84 C204 84.66 204 85.32 204 86 C205.32 86.66 206.64 87.32 208 88 C208 88.66 208 89.32 208 90 C208.66 90 209.32 90 210 90 C210 90.66 210 91.32 210 92 C210.66 92 211.32 92 212 92 C223.47945024 114.95890048 213 143.33116892 213 169 C112.02 169 11.04 169 -93 169 C-93 94 -93 94 -92 92 C-91.34 92 -90.68 92 -90 92 C-90 91.34 -90 90.68 -90 90 C-89.34 90 -88.68 90 -88 90 C-88 89.34 -88 88.68 -88 88 C-87.34 88 -86.68 88 -86 88 C-86 87.34 -86 86.68 -86 86 C-85.34 86 -84.68 86 -84 86 C-84 85.34 -84 84.68 -84 84 C-83.34 84 -82.68 84 -82 84 C-82 83.34 -82 82.68 -82 82 C-81.34 82 -80.68 82 -80 82 C-80 81.34 -80 80.68 -80 80 C-79.34 80 -78.68 80 -78 80 C-78 79.34 -78 78.68 -78 78 C-77.34 78 -76.68 78 -76 78 C-76 77.34 -76 76.68 -76 76 C-75.34 76 -74.68 76 -74 76 C-74 75.34 -74 74.68 -74 74 C-73.34 74 -72.68 74 -72 74 C-72 73.34 -72 72.68 -72 72 C-71.34 72 -70.68 72 -70 72 C-70 71.34 -70 70.68 -70 70 C-69.34 70 -68.68 70 -68 70 C-68 69.34 -68 68.68 -68 68 C-67.34 68 -66.68 68 -66 68 C-66 67.34 -66 66.68 -66 66 C-65.34 66 -64.68 66 -64 66 C-64 65.34 -64 64.68 -64 64 C-63.34 64 -62.68 64 -62 64 C-62 63.34 -62 62.68 -62 62 C-61.34 62 -60.68 62 -60 62 C-60 61.34 -60 60.68 -60 60 C-59.34 60 -58.68 60 -58 60 C-58 59.34 -58 58.68 -58 58 C-57.34 58 -56.68 58 -56 58 C-56 57.34 -56 56.68 -56 56 C-55.34 56 -54.68 56 -54 56 C-54 55.34 -54 54.68 -54 54 C-53.34 54 -52.68 54 -52 54 C-52 53.34 -52 52.68 -52 52 C-51.34 52 -50.68 52 -50 52 C-50 51.34 -50 50.68 -50 50 C-49.34 50 -48.68 50 -48 50 C-48 49.34 -48 48.68 -48 48 C-47.34 48 -46.68 48 -46 48 C-46 47.34 -46 46.68 -46 46 C-45.34 46 -44.68 46 -44 46 C-44 45.34 -44 44.68 -44 44 C-43.34 44 -42.68 44 -42 44 C-42 43.34 -42 42.68 -42 42 C-41.34 42 -40.68 42 -40 42 C-40 41.34 -40 40.68 -40 40 C-39.34 40 -38.68 40 -38 40 C-38 39.34 -38 38.68 -38 38 C-37.34 38 -36.68 38 -36 38 C-36 37.34 -36 36.68 -36 36 C-35.34 36 -34.68 36 -34 36 C-34 35.34 -34 34.68 -34 34 C-33.34 34 -32.68 34 -32 34 C-32 33.34 -32 32.68 -32 32 C-31.34 32 -30.68 32 -30 32 C-30 31.34 -30 30.68 -30 30 C-29.34 30 -28.68 30 -28 30 C-28 29.34 -28 28.68 -28 28 C-27.34 28 -26.68 28 -26 28 C-26 27.34 -26 26.68 -26 26 C-25.34 26 -24.68 26 -24 26 C-24 25.34 -24 24.68 -24 24 C-23.34 24 -22.68 24 -22 24 C-22 23.34 -22 22.68 -22 22 C-21.34 22 -20.68 22 -20 22 C-20 21.34 -20 20.68 -20 20 C-19.34 20 -18.68 20 -18 20 C-18 19.34 -18 18.68 -18 18 C-17.34 18 -16.68 18 -16 18 C-16 17.34 -16 16.68 -16 16 C-15.34 16 -14.68 16 -14 16 C-14 15.34 -14 14.68 -14 14 C-13.34 14 -12.68 14 -12 14 C-12 13.34 -12 12.68 -12 12 C-11.34 12 -10.68 12 -10 12 C-10 11.34 -10 10.68 -10 10 C-9.34 10 -8.68 10 -8 10 C-8 9.34 -8 8.68 -8 8 C-7.34 8 -6.68 8 -6 8 C-6 7.34 -6 6.68 -6 6 C-5.34 6 -4.68 6 -4 6 C-4 5.34 -4 4.68 -4 4 C-3.34 4 -2.68 4 -2 4 C-2 3.34 -2 2.68 -2 2 C-1.34 2 -0.68 2 0 2 C0 1.34 0 0.68 0 0 Z " fill="#FEFEFE" transform="translate(440,426)"/>
<path d="M0 0 C2.90719587 2.10722922 5.61747279 4.30586161 8 7 C8 7.66 8 8.32 8 9 C8.66 9 9.32 9 10 9 C10.495 11.97 10.495 11.97 11 15 C11.66 15 12.32 15 13 15 C15.47838743 23.16054397 15.11307814 32.61861902 11.140625 40.171875 C9.59840753 42.64364821 7.96682457 44.84878563 6 47 C5.40445313 47.65871094 4.80890625 48.31742187 4.1953125 48.99609375 C-1.409225 54.11197941 -9.31417266 55.58653546 -16.7109375 55.26953125 C-19.94831804 54.88833798 -22.91959243 54.04733858 -26 53 C-27.33130115 52.65864073 -28.66358148 52.32074044 -30 52 C-30 51.34 -30 50.68 -30 50 C-30.556875 49.773125 -31.11375 49.54625 -31.6875 49.3125 C-35.34339324 47.23753357 -38.3951948 44.72136865 -39.8125 40.6875 C-39.874375 40.130625 -39.93625 39.57375 -40 39 C-40.66 39 -41.32 39 -42 39 C-45.76553427 28.8678395 -44.64685098 20.03962206 -40.38671875 10.265625 C-39 8 -39 8 -36 7 C-35.690625 6.34 -35.38125 5.68 -35.0625 5 C-34 3 -34 3 -31.875 2.25 C-31.25625 2.1675 -30.6375 2.085 -30 2 C-30 1.34 -30 0.68 -30 0 C-20.71102497 -4.37128237 -9.23699716 -5.00047967 0 0 Z " fill="#FEFEFE" transform="translate(566,409)"/>
</svg>
